<svg xmlns="http://www.w3.org/2000/svg" id="Capa_1" data-name="Capa 1" viewBox="0 0 112 64.51"><defs><style>      .cls-1 {        fill: #000;      }      .cls-1, .cls-2, .cls-3 {        stroke-width: 0px;      }      .cls-2 {        fill: #fdea14;      }      .cls-3 {        fill: #fff;      }    </style></defs><path class="cls-1" d="M103.08,5.49C91.79,1.76,73.8,0,56,0h0C38.2,0,20.21,1.76,8.92,5.49,3.03,7.43,0,9.69,0,14.87v34.77c0,5.18,3.03,7.44,8.92,9.39,11.29,3.73,29.28,5.48,47.08,5.49h0c17.8,0,35.79-1.76,47.08-5.49,5.89-1.95,8.92-4.2,8.92-9.39V14.87c0-5.18-3.03-7.44-8.92-9.39Z"></path><g><rect class="cls-3" x="18.83" y="21.28" width="4.88" height="21.95"></rect><path class="cls-3" d="M42.67,43.23v-14.75c0-2.12-1.51-3.48-3.86-3.48h-6.83v18.23h-4.89v-21.95h13.23c1.21,0,7.23.34,7.23,7v14.96h-4.88Z"></path><path class="cls-2" d="M63.96,15.97c-1.57.96-2.38,2.27-2.87,3.67-.34,0-.91,0-1.04,0-2.56,0-4.21,1.67-4.21,4.25v17.79c0,3.34-2.57,6.89-7.34,6.89h-5.86v-3.66c.73,0,2.56,0,3.61,0,2.56,0,4.71-1.67,4.71-4.25v-17.79c0-3.34,2.57-6.89,7.34-6.89h5.66Z"></path><path class="cls-2" d="M54.49,48.56c1.55-.65,2.48-2.18,2.87-3.67.35,0,.91,0,1.04,0,2.56,0,4.21-1.67,4.21-4.25v-17.79c0-3.34,2.57-6.89,7.34-6.89h5.76v3.67c-.72,0-2.45,0-3.51,0-2.56,0-4.71,1.67-4.71,4.25v17.79c0,3.34-2.57,6.89-7.34,6.89h-5.66Z"></path><rect class="cls-3" x="18.83" y="15.95" width="4.88" height="3.64"></rect><path class="cls-3" d="M87.58,43.2h-.51s-7.93,0-7.93,0c-1.99,0-8.06,0-8.25-6.24v-.19s0-.08,0-.08c.19-6.25,6.25-6.25,8.25-6.25h.57s8.45,0,8.45,0v-1.98c0-2.08-1.5-3.48-3.73-3.48h-11.75v-3.72h13.19c4.57,0,7.3,2.62,7.3,7v14.96h-5.59ZM79,34.05c-1.67,0-2.77,1.04-2.86,2.72v.07c.09,1.71,1.18,2.76,2.86,2.76h9.15v-5.55h-9.15Z"></path></g></svg>